<svg aria-hidden="true" style="position: absolute; width: 0; height: 0; overflow: hidden;" version="1.1" xmlns="http://www.w3.org/2000/svg" xmlns:xlink="http://www.w3.org/1999/xlink">
<defs>
<symbol id="icon-location" viewBox="0 0 32 32">
<path stroke-linejoin="round" stroke-linecap="round" stroke-miterlimit="4" stroke-width="2.6667" d="M19.333 14.001c0-1.842-1.492-3.334-3.333-3.334-1.842 0-3.334 1.492-3.334 3.334 0 1.84 1.492 3.333 3.334 3.333 1.84 0 3.333-1.492 3.333-3.333z" fill="none"></path>
<path stroke-linejoin="round" stroke-linecap="round" stroke-miterlimit="4" stroke-width="2.6667" d="M15.999 28c-1.598 0-9.999-6.802-9.999-13.916 0-5.569 4.476-10.084 9.999-10.084s10.001 4.516 10.001 10.084c0 7.113-8.403 13.916-10.001 13.916z" fill="none"></path>
</symbol>
<symbol id="icon-mode-fan" viewBox="0 0 32 32">
<path d="M14.133 29.333c-1.133 0-1.994-0.339-2.583-1.017s-0.883-1.45-0.883-2.317c0-0.578 0.128-1.139 0.383-1.683s0.65-0.994 1.183-1.35c0.489-0.311 0.883-0.711 1.183-1.2s0.506-1.011 0.617-1.567l-0.4-0.2c-0.133-0.067-0.256-0.144-0.367-0.233l-3.067 1.1c-0.378 0.133-0.744 0.244-1.1 0.333s-0.722 0.133-1.1 0.133c-1.4 0-2.639-0.611-3.717-1.833s-1.617-3.011-1.617-5.367c0-1.133 0.339-1.994 1.017-2.583s1.439-0.883 2.283-0.883c0.578 0 1.144 0.128 1.7 0.383s1.011 0.65 1.367 1.183c0.311 0.489 0.711 0.883 1.2 1.183s1.011 0.506 1.567 0.617l0.2-0.4c0.067-0.133 0.144-0.256 0.233-0.367l-1.1-3.067c-0.133-0.378-0.244-0.744-0.333-1.1s-0.133-0.711-0.133-1.067c0-1.422 0.611-2.672 1.833-3.75s3.011-1.617 5.367-1.617c1.133 0 1.994 0.339 2.583 1.017s0.883 1.439 0.883 2.283c0 0.578-0.128 1.144-0.383 1.7s-0.65 1.011-1.183 1.367c-0.489 0.311-0.883 0.711-1.183 1.2s-0.506 1.011-0.617 1.567l0.4 0.2c0.133 0.067 0.256 0.144 0.367 0.233l3.067-1.133c0.378-0.133 0.739-0.239 1.083-0.317s0.706-0.117 1.083-0.117c1.8 0 3.144 0.744 4.033 2.233s1.333 3.144 1.333 4.967c0 1.133-0.356 1.994-1.067 2.583s-1.5 0.883-2.367 0.883c-0.556 0-1.094-0.128-1.617-0.383s-0.961-0.65-1.317-1.183c-0.311-0.489-0.711-0.883-1.2-1.183s-1.011-0.506-1.567-0.617l-0.2 0.4c-0.067 0.133-0.144 0.256-0.233 0.367l1.1 3.067c0.133 0.356 0.244 0.694 0.333 1.017s0.133 0.661 0.133 1.017c0.022 1.444-0.578 2.722-1.8 3.833s-3.022 1.667-5.4 1.667zM16 18c0.556 0 1.028-0.194 1.417-0.583s0.583-0.861 0.583-1.417c0-0.556-0.194-1.028-0.583-1.417s-0.861-0.583-1.417-0.583c-0.556 0-1.028 0.194-1.417 0.583s-0.583 0.861-0.583 1.417c0 0.556 0.194 1.028 0.583 1.417s0.861 0.583 1.417 0.583zM14.467 11.6c0.133-0.044 0.272-0.083 0.417-0.117s0.283-0.061 0.417-0.083c0.178-0.933 0.517-1.8 1.017-2.6s1.161-1.467 1.983-2c0.111-0.089 0.2-0.2 0.267-0.333s0.1-0.3 0.1-0.5c0-0.178-0.067-0.328-0.2-0.45s-0.333-0.183-0.6-0.183c-0.844 0-1.8 0.183-2.867 0.55s-1.622 1.083-1.667 2.15c0 0.2 0.028 0.389 0.083 0.567s0.106 0.344 0.15 0.5l0.9 2.5zM8 18.667c0.311 0 0.678-0.078 1.1-0.233l2.5-0.9c-0.044-0.133-0.083-0.272-0.117-0.417s-0.061-0.283-0.083-0.417c-0.933-0.178-1.8-0.517-2.6-1.017s-1.467-1.161-2-1.983c-0.089-0.111-0.206-0.2-0.35-0.267s-0.306-0.1-0.483-0.1c-0.2 0-0.356 0.067-0.467 0.2s-0.167 0.333-0.167 0.6c0 1.2 0.228 2.256 0.683 3.167s1.117 1.367 1.983 1.367zM14.133 26.667c1.044 0 2.072-0.211 3.083-0.633s1.494-1.156 1.45-2.2c0-0.178-0.028-0.344-0.083-0.5s-0.106-0.3-0.15-0.433l-0.9-2.5c-0.133 0.044-0.272 0.083-0.417 0.117s-0.283 0.061-0.417 0.083c-0.178 0.933-0.517 1.8-1.017 2.6s-1.161 1.467-1.983 2c-0.111 0.089-0.206 0.206-0.283 0.35s-0.106 0.294-0.083 0.45c0.022 0.178 0.089 0.333 0.2 0.467s0.311 0.2 0.6 0.2zM25.9 18.667c0.2 0 0.378-0.056 0.533-0.167s0.233-0.322 0.233-0.633c0-0.844-0.178-1.806-0.533-2.883s-1.078-1.628-2.167-1.65c-0.2 0-0.389 0.022-0.567 0.067s-0.344 0.089-0.5 0.133l-2.5 0.933c0.044 0.133 0.083 0.272 0.117 0.417s0.061 0.283 0.083 0.417c0.933 0.178 1.8 0.517 2.6 1.017s1.467 1.161 2 1.983c0.067 0.111 0.167 0.2 0.3 0.267s0.267 0.1 0.4 0.1z"></path>
</symbol>
<symbol id="icon-people" viewBox="0 0 32 32">
<path d="M16 5.818c-0.771 0-1.511 0.306-2.057 0.852s-0.852 1.285-0.852 2.057c0 0.772 0.306 1.511 0.852 2.057s1.286 0.852 2.057 0.852c0.771 0 1.511-0.306 2.057-0.852s0.852-1.286 0.852-2.057c0-0.772-0.306-1.511-0.852-2.057s-1.286-0.852-2.057-0.852zM11.886 4.613c1.091-1.091 2.571-1.704 4.114-1.704s3.023 0.613 4.114 1.704c1.091 1.091 1.704 2.571 1.704 4.114s-0.613 3.023-1.704 4.114c-1.091 1.091-2.571 1.704-4.114 1.704s-3.023-0.613-4.114-1.704-1.704-2.571-1.704-4.114c0-1.543 0.613-3.023 1.704-4.114zM5.818 11.636c-0.386 0-0.756 0.153-1.029 0.426s-0.426 0.643-0.426 1.029c0 0.386 0.153 0.756 0.426 1.029s0.643 0.426 1.029 0.426c0.386 0 0.756-0.153 1.029-0.426s0.426-0.643 0.426-1.029c0-0.386-0.153-0.756-0.426-1.029s-0.643-0.426-1.029-0.426zM2.733 10.005c0.818-0.818 1.928-1.278 3.086-1.278s2.267 0.46 3.086 1.278c0.818 0.818 1.278 1.928 1.278 3.086s-0.46 2.267-1.278 3.086c-0.818 0.818-1.928 1.278-3.086 1.278s-2.267-0.46-3.086-1.278c-0.818-0.818-1.278-1.928-1.278-3.086s0.46-2.267 1.278-3.086zM26.182 11.636c-0.386 0-0.756 0.153-1.029 0.426s-0.426 0.643-0.426 1.029c0 0.386 0.153 0.756 0.426 1.029s0.643 0.426 1.029 0.426c0.386 0 0.756-0.153 1.029-0.426s0.426-0.643 0.426-1.029c0-0.386-0.153-0.756-0.426-1.029s-0.643-0.426-1.029-0.426zM23.096 10.005c0.818-0.818 1.928-1.278 3.086-1.278s2.267 0.46 3.086 1.278c0.818 0.818 1.278 1.928 1.278 3.086s-0.46 2.267-1.278 3.086c-0.818 0.818-1.928 1.278-3.086 1.278s-2.267-0.46-3.086-1.278c-0.818-0.818-1.278-1.928-1.278-3.086s0.46-2.267 1.278-3.086zM16 18.908c1.163 0 2.3 0.349 3.263 1.001 0.908 0.615 1.623 1.473 2.064 2.474l0.351 3.8h-11.355l0.351-3.8c0.441-1.001 1.156-1.859 2.064-2.474 0.963-0.652 2.1-1.001 3.263-1.001zM24.727 26.182v-1.455c0-0.799-0.107-1.575-0.31-2.313 0.282-0.215 0.603-0.378 0.947-0.479 0.58-0.17 1.199-0.155 1.77 0.043s1.066 0.569 1.417 1.062 0.539 1.082 0.539 1.687c0 0 0-0 0 0v1.454h-4.364zM23.171 19.749c-0.611-0.879-1.381-1.643-2.277-2.25-1.445-0.978-3.149-1.501-4.894-1.501s-3.449 0.523-4.894 1.501c-0.896 0.606-1.666 1.37-2.277 2.25-0.428-0.259-0.891-0.463-1.377-0.606-1.16-0.34-2.398-0.309-3.54 0.087s-2.133 1.138-2.834 2.123c-0.701 0.985-1.078 2.164-1.078 3.373v2.909c0 0.803 0.651 1.455 1.455 1.455h29.091c0.803 0 1.455-0.651 1.455-1.455v-2.909c-0-1.209-0.377-2.388-1.078-3.373s-1.692-1.727-2.834-2.123c-1.142-0.396-2.38-0.426-3.54-0.087-0.486 0.142-0.948 0.346-1.377 0.606zM7.582 22.415c-0.202 0.738-0.31 1.514-0.31 2.313v1.455h-4.364v-1.455c0 0 0 0 0 0 0-0.605 0.188-1.194 0.539-1.687s0.846-0.864 1.417-1.062c0.571-0.198 1.19-0.213 1.77-0.043 0.344 0.101 0.665 0.264 0.947 0.479z" stroke="none"></path>
</symbol>
<symbol id="icon-phone" viewBox="0 0 32 32">
<path stroke-linejoin="miter" stroke-linecap="butt" stroke-miterlimit="4" stroke-width="0.6667" d="M7.453 1.333c0.568 0 1.15 0.13 1.648 0.365h-0.001c0.568 0.262 1.055 0.658 1.411 1.189l3.092 4.361c0.292 0.403 0.521 0.8 0.68 1.204h-0.001c0.185 0.43 0.29 0.872 0.29 1.309-0 0.573-0.166 1.126-0.474 1.638l-0.001-0.001c-0.219 0.391-0.543 0.796-0.939 1.193l0.001 0.001-0.74 0.771c0.168 0.272 0.466 0.698 0.98 1.302 0.649 0.741 1.254 1.414 1.858 2.031 0.589 0.579 1.099 1.064 1.572 1.48l0.461 0.395 0.003 0.001c0.601 0.507 1.025 0.799 1.302 0.962l0.743-0.732c0.421-0.421 0.841-0.747 1.258-0.966 0.779-0.482 1.749-0.584 2.711-0.245l0.193 0.074 0.001 0.001c0.276 0.117 0.567 0.265 0.872 0.456l0.31 0.204 0.001 0.001 4.419 3.142c0.474 0.321 0.845 0.725 1.091 1.205l0.098 0.21 0.003 0.007c0.213 0.54 0.316 1.049 0.316 1.562 0 0.691-0.159 1.379-0.458 2.021-0.294 0.63-0.66 1.177-1.122 1.682-0.789 0.872-1.655 1.504-2.668 1.911-0.96 0.389-2.002 0.599-3.098 0.599-1.56 0-3.191-0.373-4.863-1.079h-0.001c-1.626-0.691-3.26-1.639-4.85-2.784l-0.003-0.001c-1.573-1.156-3.092-2.447-4.53-3.858l-0.003-0.003c-1.425-1.439-2.716-2.958-3.859-4.518l-0.001-0.003c-1.014-1.414-1.855-2.832-2.495-4.219l-0.262-0.593c-0.708-1.687-1.066-3.331-1.066-4.889 0-1.080 0.194-2.108 0.569-3.068l0.001-0.001c0.392-0.995 1.021-1.916 1.869-2.708 1.079-1.062 2.332-1.609 3.681-1.609zM7.453 4c-0.624 0-1.225 0.268-1.833 0.865l-0.005 0.005c-0.58 0.542-0.977 1.129-1.224 1.759l-0.001 0.003c-0.263 0.65-0.389 1.341-0.389 2.089 0 1.188 0.282 2.491 0.854 3.844h-0.001c0.589 1.387 1.416 2.831 2.47 4.28 1.056 1.452 2.257 2.865 3.578 4.199 1.322 1.308 2.749 2.525 4.215 3.595h0.001c1.421 1.040 2.879 1.879 4.318 2.481l0.003 0.001c2.235 0.954 4.269 1.152 5.914 0.466l0.001-0.001c0.63-0.26 1.189-0.655 1.705-1.233l0.004-0.004c0.283-0.307 0.504-0.638 0.69-1.035l0.001-0.004c0.139-0.29 0.207-0.587 0.207-0.881 0-0.165-0.029-0.33-0.115-0.525-0.014-0.027-0.030-0.057-0.061-0.095-0.035-0.042-0.096-0.101-0.199-0.172l-0.004-0.004-4.426-3.146c-0.188-0.132-0.358-0.232-0.516-0.309l-0.152-0.069c-0.041-0.017-0.079-0.033-0.111-0.047-0.033-0.015-0.059-0.026-0.082-0.035-0.045-0.018-0.066-0.022-0.081-0.023-0.019-0.002-0.089-0.004-0.292 0.121l-0.013 0.008-0.013 0.007c-0.219 0.11-0.429 0.281-0.686 0.538l-0.003 0.001-1.014 1.001c-0.62 0.604-1.558 0.741-2.281 0.474l-0.010-0.004-0.009-0.004-0.372-0.165-0.010-0.005c-0.431-0.231-0.909-0.553-1.424-0.956l-0.527-0.431c-0.647-0.553-1.347-1.199-2.191-2.030l-0.004-0.004c-0.658-0.671-1.317-1.384-2.001-2.176l-0.001-0.001c-0.634-0.741-1.104-1.389-1.4-1.939l-0.009-0.016-0.007-0.018-0.168-0.419-0.005-0.021c-0.083-0.319-0.117-0.523-0.117-0.75 0-0.564 0.204-1.074 0.599-1.471l1-1.040 0.005-0.004c0.252-0.252 0.433-0.483 0.548-0.68l0.004-0.007c0.081-0.131 0.096-0.218 0.096-0.279-0-0.044-0.022-0.157-0.081-0.298v-0.001c-0.080-0.181-0.211-0.397-0.387-0.635l-0.004-0.005-3.094-4.375c-0.1-0.14-0.216-0.234-0.362-0.302v-0.001c-0.175-0.075-0.354-0.115-0.526-0.115z"></path>
</symbol>
<symbol id="icon-plus" viewBox="0 0 32 32">
<path d="M16 5.333c0.736 0 1.333 0.597 1.333 1.333v18.667c0 0.736-0.597 1.333-1.333 1.333s-1.333-0.597-1.333-1.333v-18.667c0-0.736 0.597-1.333 1.333-1.333z"></path>
<path d="M5.334 16c0-0.736 0.597-1.333 1.333-1.333h18.667c0.736 0 1.333 0.597 1.333 1.333s-0.597 1.333-1.333 1.333h-18.667c-0.736 0-1.333-0.597-1.333-1.333z"></path>
</symbol>
<symbol id="icon-sofa" viewBox="0 0 32 32">
<path d="M5.333 9.333c0-1.111 0.389-2.056 1.167-2.833s1.722-1.167 2.833-1.167h13.333c1.111 0 2.056 0.389 2.833 1.167s1.167 1.722 1.167 2.833v2.667c1.111 0 2.056 0.389 2.833 1.167s1.167 1.722 1.167 2.833v6.667c0 1.111-0.389 2.056-1.167 2.833s-1.722 1.167-2.833 1.167h-21.333c-1.111 0-2.056-0.389-2.833-1.167s-1.167-1.722-1.167-2.833v-6.667c0-1.111 0.389-2.056 1.167-2.833s1.722-1.167 2.833-1.167v-2.667zM8 9.333v3.733c0.4 0.378 0.722 0.811 0.967 1.3s0.367 1.033 0.367 1.633v2.667h13.333v-2.667c0-0.6 0.122-1.144 0.367-1.633s0.567-0.922 0.967-1.3v-3.733c0-0.378-0.128-0.694-0.383-0.95s-0.572-0.383-0.95-0.383h-13.333c-0.378 0-0.694 0.128-0.95 0.383s-0.383 0.572-0.383 0.95zM25.333 21.333h-18.667v-5.333c0-0.178-0.033-0.35-0.1-0.517s-0.161-0.311-0.283-0.433c-0.122-0.122-0.267-0.217-0.433-0.283s-0.339-0.1-0.517-0.1c-0.378 0-0.694 0.128-0.95 0.383s-0.383 0.572-0.383 0.95v6.667c0 0.378 0.128 0.694 0.383 0.95s0.572 0.383 0.95 0.383h21.333c0.378 0 0.694-0.128 0.95-0.383s0.383-0.572 0.383-0.95v-6.667c0-0.378-0.128-0.694-0.383-0.95s-0.572-0.383-0.95-0.383c-0.178 0-0.35 0.033-0.517 0.1s-0.311 0.161-0.433 0.283c-0.122 0.122-0.217 0.267-0.283 0.433s-0.1 0.339-0.1 0.517v5.333z"></path>
</symbol>
<symbol id="icon-star" viewBox="0 0 32 32">
<path stroke-linejoin="round" stroke-linecap="round" stroke-miterlimit="4" stroke-width="1.4118" d="M15.529 2.588l3.999 8.101 8.942 1.307-6.471 6.302 1.527 8.904-7.998-4.206-7.998 4.206 1.527-8.904-6.471-6.302 8.942-1.307 3.999-8.101z"></path>
</symbol>
<symbol id="icon-tv" viewBox="0 0 32 32">
<path stroke-linejoin="round" stroke-linecap="round" stroke-miterlimit="4" stroke-width="2.6667" d="M13 22.667l-1 4-1.333 1.333h10.667l-1.333-1.333-1-4h-6zM4 17.333v0zM6.667 22.667h18.667c0.707 0 1.386-0.281 1.886-0.781s0.781-1.178 0.781-1.886v-13.333c0-0.707-0.281-1.386-0.781-1.886s-1.178-0.781-1.886-0.781h-18.667c-0.707 0-1.386 0.281-1.886 0.781s-0.781 1.178-0.781 1.886v13.333c0 0.707 0.281 1.386 0.781 1.886s1.178 0.781 1.886 0.781z"></path>
</symbol>
<symbol id="icon-twitter" viewBox="0 0 32 32">
<path d="M29.333 7.733c-1.002 0.435-2.062 0.722-3.147 0.853 1.144-0.684 2.002-1.759 2.413-3.027-1.075 0.64-2.252 1.091-3.48 1.333-0.821-0.89-1.913-1.482-3.107-1.684s-2.42-0.002-3.488 0.568c-1.068 0.57-1.916 1.479-2.411 2.584s-0.611 2.342-0.327 3.519c-2.174-0.11-4.301-0.676-6.242-1.662s-3.653-2.368-5.025-4.058c-0.481 0.84-0.734 1.792-0.733 2.76-0.002 0.899 0.219 1.785 0.642 2.578s1.036 1.47 1.784 1.969c-0.869-0.024-1.72-0.257-2.48-0.68v0.067c0.007 1.26 0.448 2.479 1.25 3.451s1.915 1.637 3.15 1.883c-0.476 0.145-0.97 0.221-1.467 0.227-0.344-0.004-0.687-0.035-1.027-0.093 0.352 1.084 1.033 2.031 1.948 2.709s2.019 1.055 3.159 1.077c-1.924 1.514-4.299 2.34-6.747 2.347-0.446 0.001-0.891-0.025-1.333-0.080 2.499 1.614 5.412 2.47 8.387 2.467 2.053 0.021 4.089-0.367 5.991-1.141s3.629-1.92 5.083-3.37c1.454-1.45 2.604-3.175 3.383-5.074s1.173-3.935 1.157-5.988c0-0.227 0-0.467 0-0.707 1.046-0.78 1.949-1.737 2.667-2.827z"></path>
</symbol>
<symbol id="icon-wc" viewBox="0 0 32 32">
<path d="M7.333 29.333v-10h-2v-7.333c0-0.733 0.261-1.361 0.783-1.883s1.15-0.783 1.883-0.783h4c0.733 0 1.361 0.261 1.883 0.783s0.783 1.15 0.783 1.883v7.333h-2v10h-5.333zM10 8c-0.733 0-1.361-0.261-1.883-0.783s-0.783-1.15-0.783-1.883c0-0.733 0.261-1.361 0.783-1.883s1.15-0.783 1.883-0.783c0.733 0 1.361 0.261 1.883 0.783s0.783 1.15 0.783 1.883c0 0.733-0.261 1.361-0.783 1.883s-1.15 0.783-1.883 0.783zM20 29.333v-8h-4l3.4-10.2c0.178-0.578 0.506-1.022 0.983-1.333s1.017-0.467 1.617-0.467c0.6 0 1.139 0.156 1.617 0.467s0.806 0.756 0.983 1.333l3.4 10.2h-4v8h-4zM22 8c-0.733 0-1.361-0.261-1.883-0.783s-0.783-1.15-0.783-1.883c0-0.733 0.261-1.361 0.783-1.883s1.15-0.783 1.883-0.783c0.733 0 1.361 0.261 1.883 0.783s0.783 1.15 0.783 1.883c0 0.733-0.261 1.361-0.783 1.883s-1.15 0.783-1.883 0.783z"></path>
</symbol>
<symbol id="icon-website" viewBox="0 0 32 32">
<path stroke-linejoin="round" stroke-linecap="round" stroke-miterlimit="4" stroke-width="2.6667" d="M16 28c6.627 0 12-5.373 12-12s-5.373-12-12-12c-6.627 0-12 5.373-12 12s5.373 12 12 12z"></path>
<path stroke-linejoin="round" stroke-linecap="round" stroke-miterlimit="4" stroke-width="2.6667" d="M4.8 12h22.4"></path>
<path stroke-linejoin="round" stroke-linecap="round" stroke-miterlimit="4" stroke-width="2.6667" d="M4.8 20h22.4"></path>
<path stroke-linejoin="round" stroke-linecap="round" stroke-miterlimit="4" stroke-width="2.6667" d="M15.334 4c-2.246 3.599-3.437 7.757-3.437 12s1.191 8.401 3.437 12"></path>
<path stroke-linejoin="round" stroke-linecap="round" stroke-miterlimit="4" stroke-width="2.6667" d="M16.667 4c2.246 3.599 3.437 7.757 3.437 12s-1.191 8.401-3.437 12"></path>
</symbol>
<symbol id="icon-wifi" viewBox="0 0 32 32">
<path d="M16 28c-0.933 0-1.722-0.322-2.367-0.967s-0.967-1.433-0.967-2.367c0-0.933 0.322-1.722 0.967-2.367s1.433-0.967 2.367-0.967c0.933 0 1.722 0.322 2.367 0.967s0.967 1.433 0.967 2.367c0 0.933-0.322 1.722-0.967 2.367s-1.433 0.967-2.367 0.967zM8.467 20.467l-2.8-2.867c1.311-1.311 2.85-2.35 4.617-3.117s3.672-1.15 5.717-1.15c2.044 0 3.95 0.389 5.717 1.167s3.306 1.833 4.617 3.167l-2.8 2.8c-0.978-0.978-2.111-1.744-3.4-2.3s-2.667-0.833-4.133-0.833c-1.467 0-2.844 0.278-4.133 0.833s-2.422 1.322-3.4 2.3zM2.8 14.8l-2.8-2.8c2.044-2.089 4.433-3.722 7.167-4.9s5.678-1.767 8.833-1.767c3.156 0 6.1 0.589 8.833 1.767s5.122 2.811 7.167 4.9l-2.8 2.8c-1.711-1.711-3.694-3.050-5.95-4.017s-4.672-1.45-7.25-1.45c-2.578 0-4.994 0.483-7.25 1.45s-4.239 2.306-5.95 4.017z"></path>
</symbol>
<symbol id="icon-animals" viewBox="0 0 32 32">
<path stroke-linejoin="miter" stroke-linecap="butt" stroke-miterlimit="4" stroke-width="0.7805" d="M30.781 2.887c-0.534-0.521-1.241-0.797-1.987-0.778-1.473 0.038-2.672 1.287-2.672 2.784v6.945c-0.965-0.34-2.084-0.124-2.855 0.646l-6.845 6.845c-0.153 0.153-0.294 0.316-0.422 0.487-0.128-0.17-0.269-0.333-0.422-0.487l-6.845-6.845c-0.771-0.771-1.889-0.986-2.855-0.646v-6.987c0-0.746-0.294-1.444-0.829-1.965s-1.241-0.797-1.987-0.778c-1.473 0.038-2.672 1.287-2.672 2.784v10.257c0 0.936 0.265 1.848 0.765 2.638l5.042 7.96c0.463 0.731 0.708 1.574 0.708 2.439v2.507c0 0.505 0.409 0.915 0.915 0.915h16.362c0.505 0 0.915-0.41 0.915-0.915v-2.507c0-0.865 0.245-1.709 0.707-2.439l5.042-7.96c0.501-0.79 0.765-1.703 0.765-2.639v-10.299c0-0.746-0.294-1.444-0.829-1.965zM7.743 24.77l-5.042-7.96c-0.315-0.497-0.481-1.071-0.481-1.66v-10.257c0-0.514 0.399-0.943 0.89-0.955 0.249-0.006 0.485 0.086 0.663 0.259s0.276 0.406 0.276 0.655v9.604c0 0.025 0.002 0.050 0.004 0.075 0.026 0.667 0.292 1.326 0.8 1.835l3.336 3.336c0.357 0.357 0.936 0.357 1.293 0s0.357-0.936 0-1.293l-3.336-3.336c-0.357-0.357-0.357-0.937 0-1.293s0.937-0.357 1.294 0l6.845 6.845c0.517 0.517 0.801 1.207 0.801 1.942v7.215h-6.352v-1.592c0-1.212-0.343-2.394-0.991-3.418zM29.781 15.151c0 0.589-0.166 1.162-0.481 1.66l-5.042 7.96c-0.649 1.024-0.991 2.206-0.991 3.418v1.592h-6.352v-7.215c0-0.736 0.285-1.425 0.801-1.942l6.845-6.845c0.357-0.357 0.937-0.357 1.294 0 0.355 0.341 0.355 0.953-0 1.294l-3.336 3.338c-0.357 0.357-0.357 0.936 0 1.294s0.936 0.357 1.294-0l3.336-3.338c0.504-0.504 0.787-1.171 0.802-1.881 0-0.010 0.001-0.019 0.001-0.028v-9.563c0-0.514 0.399-0.943 0.89-0.955 0.248-0.007 0.485 0.086 0.663 0.259s0.276 0.406 0.276 0.655v10.299z"></path>
<path stroke-linejoin="miter" stroke-linecap="butt" stroke-miterlimit="4" stroke-width="0.7805" d="M9.626 8.453c0.039 0.042 0.174 0.175 2.736 2.674 1.337 1.303 2.85 2.78 2.972 2.902 0.172 0.179 0.41 0.281 0.659 0.281 0.253 0 0.494-0.104 0.667-0.288 0.13-0.134 1.53-1.497 2.765-2.699 2.163-2.106 2.851-2.776 2.936-2.87 0.020-0.021 0.038-0.044 0.056-0.066 2.957-3.753 0.264-7.966-3.552-7.985-1.036 0.016-2.018 0.372-2.881 1.037-2.223-1.682-4.668-1.136-6.115 0.202-1.952 1.783-2.049 4.762-0.27 6.782 0.009 0.010 0.018 0.020 0.027 0.030zM11.112 2.984c0.931-0.861 2.601-1.294 4.24 0.323 0.174 0.171 0.41 0.266 0.653 0.263s0.477-0.103 0.647-0.279c1.015-1.050 2.77-1.596 4.225-0.313 0.95 0.838 1.549 2.452 0.125 4.251-0.23 0.231-1.678 1.64-2.852 2.783-1.036 1.008-1.72 1.675-2.157 2.101-0.623-0.61-4.548-4.434-5.018-4.897-0.931-1.127-1.282-2.921 0.137-4.232z"></path>
</symbol>
<symbol id="icon-arrow" viewBox="0 0 32 32">
<path stroke-linejoin="round" stroke-linecap="round" stroke-miterlimit="4" stroke-width="2.6667" d="M25.333 11.333l-9.333 9.333-9.333-9.333" fill="none"></path>
</symbol>
<symbol id="icon-bus" viewBox="0 0 32 32">
<path stroke-linejoin="round" stroke-linecap="round" stroke-miterlimit="4" stroke-width="2.6667" d="M28 17.333c0-5.16-4.493-9.333-13.333-9.333h-10.667" fill="none"></path>
<path stroke-linejoin="round" stroke-linecap="round" stroke-miterlimit="4" stroke-width="2.6667" d="M4 20h21.333c0.707 0 1.385-0.281 1.886-0.781s0.781-1.178 0.781-1.886" fill="none"></path>
<path stroke-linejoin="round" stroke-linecap="round" stroke-miterlimit="4" stroke-width="2.6667" d="M4 8v6.667h23.333" fill="none"></path>
<path stroke-linejoin="round" stroke-linecap="round" stroke-miterlimit="4" stroke-width="2.6667" d="M4 13.333v5.333" fill="none"></path>
<path stroke-linejoin="round" stroke-linecap="round" stroke-miterlimit="4" stroke-width="2.6667" d="M10.667 14.667v-6.667" fill="none"></path>
<path stroke-linejoin="round" stroke-linecap="round" stroke-miterlimit="4" stroke-width="2.6667" d="M17.333 14.667v-6" fill="none"></path>
<path stroke-linejoin="round" stroke-linecap="round" stroke-miterlimit="4" stroke-width="2.6667" d="M4 25.333h24" fill="none"></path>
</symbol>
<symbol id="icon-city" viewBox="0 0 32 32">
<path stroke-linejoin="round" stroke-linecap="round" stroke-miterlimit="4" stroke-width="2.6667" d="M4 28h24" fill="none"></path>
<path stroke-linejoin="round" stroke-linecap="round" stroke-miterlimit="4" stroke-width="2.6667" d="M6.667 28v-18.667l10.667-5.333v24" fill="none"></path>
<path stroke-linejoin="round" stroke-linecap="round" stroke-miterlimit="4" stroke-width="2.6667" d="M25.333 28v-13.333l-8-5.333" fill="none"></path>
<path stroke-linejoin="round" stroke-linecap="round" stroke-miterlimit="4" stroke-width="2.6667" d="M12 12v0.013" fill="none"></path>
<path stroke-linejoin="round" stroke-linecap="round" stroke-miterlimit="4" stroke-width="2.6667" d="M12 16v0.013" fill="none"></path>
<path stroke-linejoin="round" stroke-linecap="round" stroke-miterlimit="4" stroke-width="2.6667" d="M12 20v0.013" fill="none"></path>
<path stroke-linejoin="round" stroke-linecap="round" stroke-miterlimit="4" stroke-width="2.6667" d="M12 24v0.013" fill="none"></path>
</symbol>
<symbol id="icon-dribbble" viewBox="0 0 32 32">
<path d="M30.817 11.653c0.706 2.688 0.706 5.376 0 8.064s-2.064 5.037-4.073 7.047c-2.009 2.010-4.356 3.369-7.042 4.075s-5.372 0.707-8.059 0c-2.687-0.707-5.034-2.065-7.043-4.075s-3.366-4.359-4.073-7.047c-0.706-2.688-0.706-5.376 0-8.064s2.064-5.037 4.073-7.047 4.356-3.369 7.042-4.076c2.686-0.707 5.372-0.707 8.058 0s5.034 2.066 7.042 4.076c2.009 2.010 3.366 4.359 4.073 7.047zM25.13 25.149c2.384-2.385 3.676-5.256 3.878-8.612l-0.432-0.072c-0.173-0.029-0.548-0.043-1.124-0.044s-1.165 0.041-1.766 0.123c-0.601 0.082-1.36 0.25-2.278 0.505s-1.833 0.589-2.747 1.003c0.933 3.145 1.586 6.165 1.961 9.060 0.942-0.577 1.778-1.231 2.508-1.962zM14.131 28.972c2.085 0.24 4.103 0.010 6.054-0.693-0.394-2.779-1.038-5.77-1.932-8.973-3.691 2.154-6.987 4.684-9.889 7.588 1.759 1.144 3.681 1.837 5.767 2.078zM3.441 21.102c0.658 1.505 1.583 2.854 2.775 4.047 0.135 0.135 0.24 0.231 0.317 0.288 3.479-3.482 7.16-6.271 11.043-8.367-0.288-0.904-0.567-1.693-0.836-2.366-0.058 0.020-0.142 0.060-0.252 0.123s-0.19 0.108-0.238 0.138l-0.721 0.346c-0.5 0.231-1.209 0.479-2.126 0.743s-1.934 0.502-3.049 0.714c-1.115 0.211-2.398 0.298-3.849 0.259s-2.845-0.245-4.18-0.62c0.086 1.625 0.459 3.191 1.117 4.695zM6.216 6.221c-2.249 2.251-3.537 4.982-3.864 8.194l0.058-0.375c1.077 0.404 2.283 0.621 3.619 0.649s2.516-0.050 3.539-0.238c1.023-0.188 2.076-0.452 3.157-0.793s1.802-0.591 2.162-0.75c0.36-0.159 0.647-0.286 0.858-0.382l0.043-0.014 0.029-0.029c-1.528-3.414-3.249-6.482-5.161-9.204-1.692 0.692-3.171 1.673-4.44 2.943zM18.521 2.607c-1.812-0.39-3.612-0.411-5.399-0.065 1.816 2.607 3.455 5.477 4.916 8.613 2.211-1.615 4.037-3.722 5.478-6.318-1.519-1.096-3.184-1.84-4.995-2.229zM25.116 6.496c-0.077 0.115-0.175 0.257-0.296 0.426s-0.267 0.373-0.44 0.613c-0.173 0.24-0.373 0.503-0.598 0.786s-0.471 0.582-0.736 0.895c-0.264 0.313-0.553 0.639-0.865 0.981s-0.637 0.681-0.973 1.017c-0.336 0.336-0.699 0.68-1.088 1.031s-0.781 0.675-1.175 0.973c0.019 0.077 0.062 0.193 0.13 0.347s0.12 0.27 0.159 0.346c0.221 0.587 0.466 1.255 0.735 2.006 0.932-0.394 1.874-0.717 2.826-0.967s1.744-0.418 2.378-0.505c0.635-0.086 1.266-0.137 1.896-0.151s1.052-0.010 1.269 0.014c0.217 0.024 0.425 0.051 0.627 0.079l0.029 0c-0.307-3.116-1.561-5.804-3.763-8.064l-0.115 0.173z"></path>
</symbol>
<symbol id="icon-email" viewBox="0 0 32 32">
<path d="M22.667 28.333h-13.333c-4.867 0-7.667-2.8-7.667-7.667v-9.333c0-4.867 2.8-7.667 7.667-7.667h13.333c4.867 0 7.667 2.8 7.667 7.667v9.333c0 4.867-2.8 7.667-7.667 7.667zM9.333 5.667c-3.813 0-5.667 1.853-5.667 5.667v9.333c0 3.813 1.853 5.667 5.667 5.667h13.333c3.813 0 5.667-1.853 5.667-5.667v-9.333c0-3.813-1.853-5.667-5.667-5.667h-13.333z"></path>
<path d="M16 17.16c-1.12 0-2.253-0.347-3.12-1.053l-4.173-3.333c-0.427-0.347-0.507-0.973-0.16-1.4s0.973-0.507 1.4-0.16l4.173 3.333c1.013 0.813 2.733 0.813 3.747 0l4.173-3.333c0.427-0.347 1.067-0.28 1.4 0.16 0.347 0.427 0.28 1.067-0.16 1.4l-4.173 3.333c-0.853 0.707-1.987 1.053-3.107 1.053z"></path>
</symbol>
<symbol id="icon-facebook" viewBox="0 0 32 32">
<path d="M20.16 7.093h2.507v-4.24c-1.214-0.126-2.433-0.188-3.653-0.187-3.627 0-6.107 2.213-6.107 6.267v3.493h-4.093v4.747h4.093v12.16h4.907v-12.16h4.080l0.613-4.747h-4.693v-3.027c0-1.4 0.373-2.307 2.347-2.307z"></path>
</symbol>
<symbol id="icon-fire" viewBox="0 0 32 32">
<path d="M11.29 11.193l-0.003 0.002-0.003 0.003 0.006-0.005zM24.563 10.944c-0.093-0.089-0.196-0.168-0.307-0.233-0.157-0.092-0.331-0.152-0.512-0.174s-0.364-0.007-0.539 0.044c-0.175 0.051-0.337 0.138-0.477 0.255s-0.255 0.261-0.337 0.424c-0.459 0.905-1.093 1.71-1.864 2.37 0.118-0.665 0.177-1.338 0.178-2.013 0.003-2.053-0.539-4.070-1.57-5.846s-2.513-3.247-4.297-4.263c-0.197-0.111-0.418-0.171-0.644-0.173s-0.449 0.053-0.647 0.16c-0.199 0.107-0.367 0.264-0.489 0.454s-0.193 0.408-0.208 0.634c-0.075 1.264-0.405 2.5-0.971 3.633s-1.357 2.139-2.323 2.957l-0.307 0.25c-1.011 0.68-1.905 1.519-2.65 2.483-1.157 1.457-1.958 3.164-2.341 4.986s-0.335 3.706 0.138 5.506c0.473 1.8 1.359 3.465 2.587 4.862s2.765 2.49 4.49 3.191c0.202 0.083 0.422 0.114 0.64 0.092s0.426-0.098 0.608-0.22 0.33-0.287 0.433-0.48c0.103-0.193 0.156-0.408 0.156-0.627-0.001-0.141-0.023-0.282-0.066-0.417-0.298-1.121-0.384-2.289-0.253-3.441 1.262 2.38 3.287 4.266 5.75 5.355 0.301 0.135 0.641 0.153 0.954 0.051 1.946-0.628 3.699-1.743 5.093-3.24s2.381-3.325 2.87-5.31c0.488-1.986 0.46-4.063-0.081-6.035s-1.577-3.773-3.010-5.232zM19.356 28.052c-1.162-0.589-2.187-1.416-3.009-2.427s-1.421-2.184-1.76-3.442c-0.103-0.424-0.183-0.853-0.24-1.285-0.038-0.275-0.161-0.532-0.352-0.734s-0.441-0.339-0.713-0.392c-0.084-0.017-0.17-0.025-0.255-0.025-0.234 0-0.465 0.062-0.667 0.179s-0.371 0.286-0.488 0.489c-1.106 1.908-1.663 4.085-1.607 6.29-0.973-0.757-1.786-1.699-2.392-2.772s-0.993-2.256-1.139-3.48-0.047-2.465 0.29-3.65c0.337-1.185 0.906-2.292 1.675-3.256 0.583-0.758 1.287-1.414 2.083-1.944 0.034-0.022 0.068-0.047 0.099-0.073 0 0 0.396-0.327 0.409-0.335 1.9-1.607 3.251-3.766 3.865-6.177 1.453 1.343 2.421 3.128 2.756 5.078s0.015 3.956-0.907 5.706c-0.122 0.234-0.172 0.498-0.144 0.76s0.133 0.51 0.302 0.712 0.394 0.35 0.646 0.425c0.253 0.075 0.522 0.073 0.773-0.006 2.042-0.64 3.84-1.891 5.15-3.583 0.787 1.163 1.302 2.489 1.506 3.879s0.091 2.807-0.329 4.148c-0.42 1.34-1.138 2.568-2.098 3.593s-2.141 1.819-3.451 2.324v0z" stroke="none"></path>
</symbol>
<symbol id="icon-instagram" viewBox="0 0 32 32">
<path stroke-linejoin="round" stroke-linecap="round" stroke-miterlimit="4" stroke-width="2.6667" d="M21.333 5.333h-10.667c-2.946 0-5.333 2.388-5.333 5.333v10.667c0 2.945 2.388 5.333 5.333 5.333h10.667c2.945 0 5.333-2.388 5.333-5.333v-10.667c0-2.946-2.388-5.333-5.333-5.333z"></path>
<path stroke-linejoin="round" stroke-linecap="round" stroke-miterlimit="4" stroke-width="2.6667" d="M16 20c2.209 0 4-1.791 4-4s-1.791-4-4-4c-2.209 0-4 1.791-4 4s1.791 4 4 4z"></path>
<path stroke-linejoin="round" stroke-linecap="round" stroke-miterlimit="4" stroke-width="2.6667" d="M22 10v0.001"></path>
</symbol>
<symbol id="icon-linkedin" viewBox="0 0 32 32">
<path stroke-linejoin="round" stroke-linecap="round" stroke-miterlimit="4" stroke-width="2.6667" d="M24 5.333h-16c-1.473 0-2.667 1.194-2.667 2.667v16c0 1.473 1.194 2.667 2.667 2.667h16c1.473 0 2.667-1.194 2.667-2.667v-16c0-1.473-1.194-2.667-2.667-2.667z"></path>
<path stroke-linejoin="round" stroke-linecap="round" stroke-miterlimit="4" stroke-width="2.6667" d="M10.667 14.667v6.667"></path>
<path stroke-linejoin="round" stroke-linecap="round" stroke-miterlimit="4" stroke-width="2.6667" d="M10.667 10.667v0.013"></path>
<path stroke-linejoin="round" stroke-linecap="round" stroke-miterlimit="4" stroke-width="2.6667" d="M16 21.333v-6.667"></path>
<path stroke-linejoin="round" stroke-linecap="round" stroke-miterlimit="4" stroke-width="2.6667" d="M21.333 21.333v-4c0-0.707-0.281-1.385-0.781-1.886s-1.178-0.781-1.886-0.781c-0.707 0-1.385 0.281-1.886 0.781s-0.781 1.178-0.781 1.886"></path>
</symbol>
<symbol id="icon-close" viewBox="0 0 32 32">
<path d="M24.707 7.293c0.391 0.391 0.391 1.024 0 1.414l-16 16c-0.391 0.391-1.024 0.391-1.414 0s-0.391-1.024 0-1.414l16-16c0.391-0.391 1.024-0.391 1.414 0z"></path>
<path d="M7.293 7.293c0.391-0.391 1.024-0.391 1.414 0l16 16c0.391 0.391 0.391 1.024 0 1.414s-1.024 0.391-1.414 0l-16-16c-0.391-0.391-0.391-1.024 0-1.414z"></path>
</symbol>
<symbol id="icon-burger" viewBox="0 0 32 32">
<path d="M4.333 16c0-0.552 0.448-1 1-1h21.333c0.552 0 1 0.448 1 1s-0.448 1-1 1h-21.333c-0.552 0-1-0.448-1-1z"></path>
<path d="M4.333 8c0-0.552 0.448-1 1-1h21.333c0.552 0 1 0.448 1 1s-0.448 1-1 1h-21.333c-0.552 0-1-0.448-1-1z"></path>
<path d="M4.333 24c0-0.552 0.448-1 1-1h21.333c0.552 0 1 0.448 1 1s-0.448 1-1 1h-21.333c-0.552 0-1-0.448-1-1z"></path>
</symbol>
<symbol id="icon-login" viewBox="0 0 32 32">
<path d="M12 16h-10v-4h10v-4l6 6-6 6zM32 0v26l-12 6v-6h-12v-8h2v6h10v-18l8-4h-18v8h-2v-10z"></path>
</symbol>
<symbol id="icon-create" viewBox="0 0 32 32">
<path d="M12 23c0-4.726 2.996-8.765 7.189-10.319 0.509-1.142 0.811-2.411 0.811-3.681 0-4.971 0-9-6-9s-6 4.029-6 9c0 3.096 1.797 6.191 4 7.432v1.649c-6.784 0.555-12 3.888-12 7.918h12.416c-0.271-0.954-0.416-1.96-0.416-3z"></path>
<path d="M23 14c-4.971 0-9 4.029-9 9s4.029 9 9 9c4.971 0 9-4.029 9-9s-4.029-9-9-9zM28 24h-4v4h-2v-4h-4v-2h4v-4h2v4h4v2z"></path>
</symbol>
</defs>
</svg>
